HIERARCHY
ROOT Hips
{
	OFFSET 0.000000 88.474243 0.000000
	CHANNELS 6 Xposition Yposition Zposition Zrotation Yrotation Xrotation 
	JOINT Hips_Spine
	{
		OFFSET 0.000000 0.000000 0.000000
		CHANNELS 3 Zrotation Yrotation Xrotation
		JOINT Spine
		{
			OFFSET 0.005100 8.711998 -0.691000
			CHANNELS 3 Zrotation Yrotation Xrotation
			JOINT Spine1
			{
				OFFSET -0.009200 8.660301 -1.275000
				CHANNELS 3 Zrotation Yrotation Xrotation
				JOINT Spine2
				{
					OFFSET 0.006300 9.852501 -1.857000
					CHANNELS 3 Zrotation Yrotation Xrotation
					JOINT Spine2_Neck
					{
						OFFSET 0.000000 0.000000 0.000000
						CHANNELS 3 Zrotation Yrotation Xrotation
						JOINT Neck
						{
							OFFSET 0.016300 11.420799 -0.263300
							CHANNELS 3 Zrotation Yrotation Xrotation
							End Site #name: Head
							{
								OFFSET -0.019200 9.262405 2.362500
							}
						}
					}
					JOINT Spine2_LeftShoulder
					{
						OFFSET 0.000000 0.000000 0.000000
						CHANNELS 3 Zrotation Yrotation Xrotation
						JOINT LeftShoulder
						{
							OFFSET 5.616900 6.732201 -0.345700
							CHANNELS 3 Zrotation Yrotation Xrotation
							JOINT LeftArm
							{
								OFFSET 10.664888 -0.183372 -2.440700
								CHANNELS 3 Zrotation Yrotation Xrotation
								JOINT LeftForeArm
								{
									OFFSET 27.459126 0.000000 0.000000
									CHANNELS 3 Zrotation Yrotation Xrotation
									End Site #name: LeftHand
									{
										OFFSET 21.306858 0.000000 0.000000
									}
								}
							}
						}
					}
					JOINT Spine2_RightShoulder
					{
						OFFSET 0.000000 0.000000 0.000000
						CHANNELS 3 Zrotation Yrotation Xrotation
						JOINT RightShoulder
						{
							OFFSET -5.580300 6.737503 -0.344400
							CHANNELS 3 Zrotation Yrotation Xrotation
							JOINT RightArm
							{
								OFFSET -10.679335 -0.188484 -2.383900
								CHANNELS 3 Zrotation Yrotation Xrotation
								JOINT RightForeArm
								{
									OFFSET -27.503529 0.000000 0.000000
									CHANNELS 3 Zrotation Yrotation Xrotation
									End Site #name: RightHand
									{
										OFFSET -21.306808 0.000000 0.000000
									}
								}
							}
						}
					}
				}
			}
		}
	}
	JOINT Hips_LeftUpLeg
	{
		OFFSET 0.000000 0.000000 0.000000
		CHANNELS 3 Zrotation Yrotation Xrotation
		JOINT LeftUpLeg
		{
			OFFSET 6.857700 -6.739601 0.312100
			CHANNELS 3 Zrotation Yrotation Xrotation
			JOINT LeftLeg
			{
				OFFSET -0.367590 -34.731552 -4.572400
				CHANNELS 3 Zrotation Yrotation Xrotation
				End Site #name: LeftFoot
				{
					OFFSET 0.367590 -34.656704 -6.067400
				}
			}
		}
	}
	JOINT Hips_RightUpLeg
	{
		OFFSET 0.000000 0.000000 0.000000
		CHANNELS 3 Zrotation Yrotation Xrotation
		JOINT RightUpLeg
		{
			OFFSET -6.876100 -6.733299 0.301000
			CHANNELS 3 Zrotation Yrotation Xrotation
			JOINT RightLeg
			{
				OFFSET 0.347353 -34.795158 -4.515900
				CHANNELS 3 Zrotation Yrotation Xrotation
				End Site #name: RightFoot
				{
					OFFSET -0.347353 -34.589367 -6.070300
				}
			}
		}
	}
}
MOTION
Frames: 12
Frame Time: 0.041667
0.182549 0.042067 -0.020382 1.207895 16.156816 -6.482023 -0.000000 0.000000 0.000000 -0.087953 -1.566975 -0.174364 0.230848 -1.442901 -1.593464 0.000000 0.000000 0.000000 -0.007624 -0.910260 -1.849983 4.172945 0.725938 -5.061238 0.410430 -1.723760 -2.788063 -16.511865 -6.975459 2.557521 -45.958654 0.570011 7.728891 -0.174339 -31.563759 5.846090 0.272878 -1.253265 -0.931178 12.651425 11.535958 4.653527 57.555117 -5.838862 -5.126970 -0.447429 55.425384 0.570514 0.000000 0.000000 0.000000 -10.549201 19.910869 -4.289930 -1.680396 -2.346870 22.653814 0.000000 0.000000 0.000000 -5.282500 16.625687 -8.928001 7.584973 2.366008 -1.965344 
0.750945 -0.048139 0.138547 3.189162 15.618217 -7.075641 -0.000000 0.000000 0.000000 -2.334607 -2.228626 -0.786224 0.456514 -1.577731 -1.771362 0.000000 0.000000 0.000000 0.037974 -0.857419 -2.804636 4.665333 -1.197110 -3.133652 -0.214240 -1.668432 -3.824357 -21.855162 -3.636843 0.895925 -43.936896 1.326669 -2.963215 -0.631399 -25.419959 3.604507 0.025052 -1.559204 -1.061676 13.345565 8.389698 1.822899 59.948917 -0.972459 -5.630017 -0.526956 57.003032 -0.843425 0.000000 0.000000 -0.000000 -13.751659 17.314364 -1.159285 -0.925421 1.275706 20.447306 0.000000 0.000000 0.000000 -9.447476 19.289781 -9.666199 7.901294 1.979221 0.410259 
1.060010 -0.092777 0.173958 4.769059 13.292643 -7.254339 -0.000000 0.000000 -0.000000 -3.808110 -3.502804 -0.520481 0.388402 -1.390735 -1.696595 0.000000 0.000000 0.000000 0.489793 -1.321065 -2.625217 3.939128 -2.404585 -3.350729 -0.554034 -1.587496 -3.246769 -25.498847 -2.675069 2.361711 -44.344384 7.120898 -6.815295 -1.265948 -26.139861 3.553473 0.073587 -1.564148 -0.883777 12.238895 7.693311 2.045746 58.913903 1.546149 -3.812608 -0.111077 52.226093 -0.639171 0.000000 0.000000 -0.000000 -15.650126 17.029151 0.836843 -1.351157 1.819352 18.615556 0.000000 0.000000 0.000000 -11.875797 20.644248 -12.973549 7.198384 0.005273 6.825864 
1.311966 -0.125805 0.131380 5.501032 11.266868 -7.235358 -0.000000 0.000000 -0.000000 -5.245199 -3.282727 0.526024 0.345508 -1.340051 -1.458604 0.000000 0.000000 0.000000 0.629949 -1.478502 -2.442162 3.674900 -4.204970 -2.443641 -0.513401 -1.598680 -2.957944 -26.989013 -2.186913 3.583191 -42.889714 7.691302 -5.694669 -0.834256 -24.868916 5.662636 0.154733 -1.607283 -0.702582 10.993138 7.721063 1.983572 58.638982 4.597364 -2.267315 0.084316 53.668534 -0.550144 0.000000 0.000000 -0.000000 -16.687991 17.226902 1.358511 -1.740809 2.271612 17.832769 0.000000 0.000000 0.000000 -13.658324 20.081873 -16.358894 6.547239 -0.700561 14.122909 
1.614437 -0.142973 0.078192 5.731108 10.386357 -6.980957 -0.000000 0.000000 -0.000000 -6.007915 -2.788465 0.734964 0.224065 -1.302743 -1.370423 0.000000 0.000000 0.000000 0.388538 -1.579954 -2.494218 3.701714 -5.176260 -2.105758 -0.571103 -1.772169 -2.873403 -28.814415 -1.357393 4.745187 -39.719714 7.064306 -5.152532 -0.176199 -20.744546 7.609596 0.103573 -1.637252 -0.681747 9.019746 7.592608 1.667118 59.446440 5.738856 -2.168459 0.145421 55.847355 -0.679654 0.000000 0.000000 -0.000000 -17.234352 17.429037 1.474530 -1.969828 2.455596 17.449141 0.000000 0.000000 0.000000 -14.956385 18.956189 -18.555431 6.201197 -0.571506 19.343467 
1.948883 -0.147146 0.022891 5.692999 9.916475 -6.859849 -0.000000 0.000000 -0.000000 -6.252320 -2.472687 0.198824 0.019301 -1.270773 -1.422353 0.000000 0.000000 0.000000 0.018314 -1.651729 -2.662806 3.715437 -5.473769 -2.040280 -0.765695 -1.879502 -3.000036 -30.849263 -0.480168 5.401558 -37.154406 6.674987 -4.502599 0.352266 -16.243802 8.939836 -0.038929 -1.730117 -0.835235 7.195352 7.593730 1.560579 61.029207 5.447344 -3.157240 0.266330 56.124803 -0.697834 0.000000 0.000000 -0.000000 -17.538659 17.644222 1.235258 -1.886756 2.617734 17.326092 0.000000 0.000000 0.000000 -15.688761 17.655776 -19.409459 6.069250 -0.002235 22.410257 
2.295997 -0.141652 -0.029334 5.502843 10.139421 -6.769781 -0.000000 0.000000 -0.000000 -6.058961 -2.169405 -0.473751 -0.230887 -1.218918 -1.621966 0.000000 0.000000 0.000000 -0.328929 -1.652788 -2.826334 3.620034 -5.454478 -1.964437 -1.035707 -1.876858 -3.198163 -32.581489 0.336919 5.666370 -35.248790 6.554689 -3.930634 0.792844 -11.727214 9.529733 -0.317469 -1.742431 -1.020447 5.992529 7.583334 1.501643 62.844484 4.410618 -4.881675 0.403888 55.159561 -0.689595 0.000000 0.000000 -0.000000 -17.659485 17.821438 0.734960 -1.766806 2.786144 17.486870 0.000000 0.000000 0.000000 -16.134038 16.429251 -19.450428 5.929220 0.464553 23.846584 
2.632472 -0.125018 -0.072933 5.204137 11.142577 -6.654160 -0.000000 0.000000 -0.000000 -5.929533 -1.825806 -1.096372 -0.440350 -1.105529 -1.846815 0.000000 0.000000 0.000000 -0.565398 -1.627759 -2.982954 3.509175 -5.294446 -1.876291 -1.289695 -1.816802 -3.384215 -33.905985 1.004986 5.614666 -34.281530 6.302986 -3.547706 0.996922 -8.739330 9.474387 -0.594151 -1.675362 -1.152279 5.285528 7.624018 1.494738 65.177909 3.837865 -6.005625 0.568936 53.316816 -0.628997 0.000000 0.000000 -0.000000 -17.630563 17.830927 0.154915 -1.603001 3.020338 17.641661 0.000000 0.000000 0.000000 -16.365648 15.064120 -19.049236 5.616779 0.553351 24.241131 
2.931028 -0.094467 -0.102549 4.800688 12.544197 -6.531392 -0.000000 0.000000 -0.000000 -6.069236 -1.464860 -1.444296 -0.581705 -0.971645 -2.024816 0.000000 0.000000 0.000000 -0.756427 -1.569577 -3.130847 3.450381 -4.949370 -1.782351 -1.461567 -1.742856 -3.611486 -34.671097 1.476432 5.515073 -33.778300 6.317923 -3.507406 1.007214 -7.480602 9.154067 -0.865334 -1.563349 -1.253221 4.924599 7.592966 1.515688 67.148216 3.328886 -6.423286 0.741200 50.936891 -0.536242 0.000000 0.000000 -0.000000 -17.428410 17.691935 -0.374192 -1.362237 3.284792 17.754169 0.000000 0.000000 0.000000 -16.404907 13.320761 -18.367472 5.144065 0.371774 23.973119 
3.187685 -0.052464 -0.119756 4.318717 13.972054 -6.394187 -0.000000 0.000000 -0.000000 -6.446699 -1.137552 -1.554434 -0.701708 -0.844251 -2.235017 0.000000 0.000000 0.000000 -0.936049 -1.494326 -3.279887 3.454220 -4.512076 -1.704144 -1.596101 -1.651725 -3.832240 -34.893489 1.778031 5.408147 -33.821781 6.426826 -3.640903 0.946735 -7.310735 8.809334 -1.112444 -1.428880 -1.349961 4.591203 7.531152 1.520135 68.748682 3.269381 -6.002560 0.857396 48.746675 -0.468726 0.000000 0.000000 -0.000000 -17.123093 17.510854 -0.945289 -1.102460 3.498274 17.895998 0.000000 0.000000 0.000000 -16.270276 11.320300 -17.500184 4.568089 0.027075 23.174718 
3.400490 -0.000852 -0.124645 3.793607 15.309137 -6.284308 -0.000000 0.000000 -0.000000 -6.933467 -0.771096 -1.480809 -0.823356 -0.726752 -2.450941 0.000000 0.000000 0.000000 -1.133049 -1.408482 -3.423125 3.518656 -4.045934 -1.689526 -1.731042 -1.562526 -4.059031 -34.708821 2.004281 5.341681 -34.181301 6.372913 -3.817190 0.868899 -7.814141 8.552346 -1.366668 -1.290014 -1.435224 4.357743 7.366635 1.504680 69.747330 3.449362 -5.478461 0.924599 46.983600 -0.434467 0.000000 0.000000 -0.000000 -16.777249 17.320365 -1.457447 -0.825812 3.715027 17.931552 0.000000 0.000000 0.000000 -16.032514 9.180409 -16.552675 4.036909 -0.316827 21.847065 
3.565579 0.058845 -0.120034 3.325771 16.236924 -6.145908 -0.000000 0.000000 -0.000000 -7.463412 -0.473213 -1.285110 -0.956890 -0.610963 -2.671087 0.000000 0.000000 0.000000 -1.338437 -1.326742 -3.561539 3.621015 -3.610315 -1.791827 -1.873063 -1.467955 -4.268355 -34.294877 2.160634 5.328028 -34.733279 6.149506 -3.865681 0.820324 -8.477521 8.380400 -1.624510 -1.147636 -1.513945 4.250570 7.088359 1.471217 70.046328 3.619174 -5.131079 0.940353 45.935379 -0.422495 0.000000 0.000000 -0.000000 -16.439766 17.182834 -1.873272 -0.666299 3.893921 17.830327 0.000000 0.000000 0.000000 -15.693506 7.128113 -15.636217 3.560427 -0.728105 20.328432 
